<svg xmlns="http://www.w3.org/2000/svg" xmlns:svg="http://www.w3.org/2000/svg" x="0" y="0" version="1.1" viewBox="0 0 100 125"><g><g fill="#000"><path fill="#000" fill-opacity="1" fill-rule="nonzero" stroke="none" marker="none" d="m 2123,934 c -1.7755,0 -3,1.55129 -3,3.125 l 0,65.7188 c 0,1.5737 1.2246,3.1562 3,3.1562 l 12,0 c 1.7754,0 3,-1.5825 3,-3.1562 l 0,-65.7188 c 0,-1.57371 -1.2245,-3.125 -3,-3.125 l -12,0 z m 44,0 c -1.7755,0 -3,1.55129 -3,3.125 l 0,65.7188 c 0,1.5737 1.2246,3.1562 3,3.1562 l 12,0 c 1.7754,0 3,-1.5825 3,-3.1562 l 0,-65.7188 c 0,-1.57371 -1.2245,-3.125 -3,-3.125 l -12,0 z m -43,4 10,0 0,10 -10,0 0,-10 z m 44,0 10,0 0,10 -10,0 0,-10 z m -23,4 c -1.6274,0 -3,1.37259 -3,3 l 0,58 c 0,1.6274 1.3726,3 3,3 l 12,0 c 1.6274,0 3,-1.3726 3,-3 l 0,-58 c 0,-1.62741 -1.3726,-3 -3,-3 l -12,0 z m 1,4 10,0 0,8 -10,0 0,-8 z m -22,6 10,0 0,36 -10,0 0,-36 z m 44,0 10,0 0,36 -10,0 0,-36 z m -22,6 10,0 0,32 -10,0 0,-32 z m -22,34 10,0 0,10 -10,0 0,-10 z m 44,0 10,0 0,10 -10,0 0,-10 z m -22,2 10,0 0,8 -10,0 0,-8 z" style="text-indent:0;text-transform:none;direction:ltr;block-progression:tb;baseline-shift:baseline;color:#000;enable-background:accumulate" display="inline" overflow="visible" transform="translate(0,-952.36218) translate(-2114.8694,1180) translate(0,-1147.6378)" visibility="visible"/><path style="text-indent:0;text-transform:none;direction:ltr;block-progression:tb;baseline-shift:baseline;color:#000;enable-background:accumulate" fill="#000" fill-opacity="1" stroke="none" marker="none" d="m 2184.4355,-198.62112 c -1.5247,0.297 -2.7021,1.81897 -2.383,3.45689 l 9.9659,51.16343 c 0.319,1.63791 1.9815,2.60673 3.5063,2.30973 l 11.7786,-2.29431 c 1.5247,-0.297 2.7021,-1.81898 2.383,-3.45689 l -9.9659,-51.16343 c -0.319,-1.63792 -1.9815,-2.60673 -3.5063,-2.30973 l -11.7786,2.29431 z m 1.7463,3.73502 9.8155,-1.91193 1.5296,7.85242 -9.8155,1.91193 -1.5296,-7.85242 z m 2.2943,11.77863 9.8156,-1.91193 4.971,25.52037 -9.8156,1.91193 -4.971,-25.52037 z m 5.7358,29.44658 9.8155,-1.91193 1.5296,7.85242 -9.8155,1.91193 -1.5296,-7.85242 z" display="inline" overflow="visible" transform="translate(0,-952.36218) translate(-2114.8694,1180)" visibility="visible"/></g></g></svg>