<svg xmlns="http://www.w3.org/2000/svg" fill="none" viewBox="0 0 80 13"><path fill="#EBA430" d="M8.579 3.646L6.781 0L4.981 3.646C4.796 4.021 4.438 4.282 4.023 4.342L0 4.926L2.911 7.765C3.211 8.057 3.347 8.478 3.276 8.891L2.59 12.898L6.188 11.006C6.562 10.81 7.001 10.81 7.374 11.006L10.971 12.898L10.285 8.891C10.214 8.478 10.35 8.057 10.65 7.765L13.561 4.926L9.538 4.342C9.122 4.282 8.765 4.021 8.579 3.646Z"/><path fill="#EBA430" d="M25.189 3.646L23.391 0L21.591 3.646C21.406 4.021 21.048 4.282 20.633 4.342L16.61 4.926L19.521 7.765C19.82 8.057 19.957 8.478 19.886 8.891L19.2 12.898L22.798 11.006C23.171 10.81 23.611 10.81 23.984 11.006L27.581 12.898L26.895 8.891C26.824 8.478 26.96 8.057 27.26 7.765L30.171 4.926L26.148 4.342C25.732 4.282 25.375 4.021 25.189 3.646Z"/><path fill="#EBA430" d="M41.799 3.646L40 0L38.2 3.646C38.015 4.021 37.657 4.282 37.242 4.342L33.219 4.926L36.13 7.765C36.43 8.057 36.567 8.478 36.496 8.891L35.81 12.898L39.408 11.006C39.781 10.81 40.221 10.81 40.594 11.006L44.191 12.898L43.505 8.891C43.434 8.478 43.571 8.057 43.87 7.765L46.781 4.926L42.758 4.342C42.342 4.282 41.984 4.021 41.799 3.646Z"/><path fill="#EBA430" d="M58.408 3.646L56.61 0L54.81 3.646C54.624 4.021 54.267 4.282 53.852 4.342L49.829 4.926L52.74 7.765C53.04 8.057 53.177 8.478 53.105 8.891L52.419 12.898L56.017 11.006C56.39 10.81 56.83 10.81 57.203 11.006L60.8 12.898L60.114 8.891C60.043 8.478 60.18 8.057 60.479 7.765L63.39 4.926L59.367 4.342C58.952 4.282 58.594 4.021 58.408 3.646Z"/><path fill="#DDD" d="M75.018 3.646L73.22 0L71.42 3.646C71.234 4.021 70.877 4.282 70.462 4.342L66.439 4.926L69.35 7.765C69.65 8.057 69.787 8.478 69.715 8.891L69.029 12.898L72.627 11.006C73 10.81 73.44 10.81 73.813 11.006L77.41 12.898L76.724 8.891C76.653 8.478 76.79 8.057 77.089 7.765L80 4.926L75.977 4.342C75.562 4.282 75.204 4.021 75.018 3.646Z"/></svg>