
<svg viewBox="0 0 59 40" fill="none" xmlns="http://www.w3.org/2000/svg">
<path d="M59 39C59 39.5523 58.5523 40 58 40C57.4477 40 57 39.5523 57 39C57 30.7157 50.2843 24 42 24C33.7157 24 27 30.7157 27 39C27 39.5523 26.5523 40 26 40C25.4477 40 25 39.5523 25 39C25 29.6112 32.6112 22 42 22C51.3888 22 59 29.6112 59 39ZM42 20C36.4772 20 32 15.5228 32 10C32 4.47715 36.4772 0 42 0C47.5228 0 52 4.47715 52 10C52 15.5228 47.5228 20 42 20ZM42 18C46.4183 18 50 14.4183 50 10C50 5.58172 46.4183 2 42 2C37.5817 2 34 5.58172 34 10C34 14.4183 37.5817 18 42 18Z" fill="black"/>
<path d="M34 39C34 39.5523 33.5523 40 33 40C32.4477 40 32 39.5523 32 39C32 30.7157 25.2843 24 17 24C8.71573 24 2 30.7157 2 39C2 39.5523 1.55228 40 1 40C0.447715 40 0 39.5523 0 39C0 29.6112 7.61116 22 17 22C26.3888 22 34 29.6112 34 39ZM17 20C11.4772 20 7 15.5228 7 10C7 4.47715 11.4772 0 17 0C22.5228 0 27 4.47715 27 10C27 15.5228 22.5228 20 17 20ZM17 18C21.4183 18 25 14.4183 25 10C25 5.58172 21.4183 2 17 2C12.5817 2 9 5.58172 9 10C9 14.4183 12.5817 18 17 18Z" fill="black"/>
</svg>
